<svg width="142" height="181" viewBox="0 0 142 181" fill="none" xmlns="http://www.w3.org/2000/svg">
<path d="M138.216 100.754C140.639 103.178 142 106.466 142 109.895C142 113.323 140.639 116.611 138.216 119.035L80.0591 177.215C77.6355 179.638 74.3489 181 70.922 181C67.495 181 64.2084 179.638 61.7849 177.215L3.62785 119.035C1.27368 116.597 -0.0289612 113.331 0.000488281 109.941C0.0299377 106.551 1.38911 103.308 3.78528 100.911C6.18146 98.5143 9.42291 97.1546 12.8115 97.1251C16.2001 97.0957 19.4646 98.3988 21.9021 100.754L57.9982 135.752L57.9982 12.9288C57.9982 9.49985 59.3598 6.21136 61.7835 3.78675C64.2072 1.36213 67.4944 0 70.922 0C74.3496 0 77.6368 1.36213 80.0605 3.78675C82.4841 6.21136 83.8458 9.49985 83.8458 12.9288V135.752L119.942 100.754C122.365 98.3301 125.652 96.9685 129.079 96.9685C132.506 96.9685 135.793 98.3301 138.216 100.754Z" fill="#CB352A"/>
</svg>
