<svg width="142" height="136" viewBox="0 0 142 136" fill="none" xmlns="http://www.w3.org/2000/svg">
<path d="M141.718 66.3486C136.311 51.8297 126.883 39.2512 114.595 30.1629L137.269 6.84857L130.594 0L4.73145 129.151L11.4056 136L35.5463 111.277C46.3234 117.717 58.5304 121.213 71 121.429C86.4287 120.833 101.349 115.612 113.917 106.41C126.486 97.2079 136.151 84.4286 141.718 69.6514C142.094 68.5843 142.094 67.4157 141.718 66.3486ZM71 99.5714C64.4754 99.5684 58.1228 97.4239 52.8708 93.4514L61.5331 84.66C65.1248 86.6794 69.2578 87.4493 73.3121 86.8542C77.3664 86.2591 81.1233 84.3311 84.0193 81.3594C86.9153 78.3878 88.7942 74.5327 89.3741 70.3725C89.954 66.2123 89.2038 61.9713 87.2358 58.2857L95.8034 49.4943C99.138 54.194 101.141 59.7485 101.591 65.5435C102.042 71.3386 100.921 77.1486 98.3545 82.3311C95.7875 87.5136 91.874 91.8668 87.0464 94.9094C82.2189 97.952 76.6654 99.5654 71 99.5714ZM16.7071 96.22L40.3745 71.9343C40.2531 70.6268 40.2057 69.3131 40.2325 68C40.245 59.6307 43.4906 51.6078 49.2579 45.6898C55.0252 39.7718 62.8438 36.4414 71 36.4286C72.2499 36.4371 73.4984 36.5182 74.7394 36.6714L92.6319 18.36C85.668 15.9066 78.3627 14.6271 71 14.5714C55.5713 15.1668 40.6508 20.3881 28.0826 29.5901C15.5144 38.7921 5.84931 51.5714 0.281994 66.3486C-0.0939981 67.4157 -0.0939981 68.5843 0.281994 69.6514C3.9223 79.5703 9.51336 88.6142 16.7071 96.22Z" fill="white"/>
</svg>
